<svg width="45" height="44" viewBox="0 0 45 44" fill="none" xmlns="http://www.w3.org/2000/svg">
<path d="M16.2143 31.4287C24.893 31.4287 31.9285 24.3932 31.9285 15.7144C31.9285 14.7308 31.8382 13.7683 31.6653 12.8348C30.7318 12.6619 29.7693 12.5715 28.7857 12.5715C20.1069 12.5715 13.0714 19.6071 13.0714 28.2858C13.0714 29.2694 13.1618 30.2319 13.3346 31.1654C14.2682 31.3383 15.2307 31.4287 16.2143 31.4287Z" fill="#175CD3"/>
<path fill-rule="evenodd" clip-rule="evenodd" d="M13.3347 31.1653C6.03115 29.8127 0.499969 23.4095 0.499969 15.7143C0.499969 7.03553 7.5355 0 16.2143 0C23.9094 0 30.3127 5.53118 31.6653 12.8347C30.7318 12.6618 29.7693 12.5714 28.7857 12.5714C20.1069 12.5714 13.0714 19.607 13.0714 28.2857C13.0714 29.2693 13.1618 30.2318 13.3347 31.1653Z" fill="#1570EF"/>
<path fill-rule="evenodd" clip-rule="evenodd" d="M16.2142 31.4286C24.893 31.4286 31.9285 24.3931 31.9285 15.7143C31.9285 14.7307 31.8381 13.7682 31.6652 12.8347C38.9687 14.1873 44.4999 20.5906 44.4999 28.2858C44.4999 36.9645 37.4644 44 28.7856 44C21.0905 44 14.6872 38.4689 13.3346 31.1654C14.2681 31.3382 15.2306 31.4286 16.2142 31.4286Z" fill="#2E90FA"/>
</svg>
