<svg width="44" height="44" viewBox="0 0 44 44" fill="none" xmlns="http://www.w3.org/2000/svg">
<rect width="44" height="44" fill="#4D4C4C"/>
<g id="Desktop" clip-path="url(#clip0_0_1)">
<rect width="1440" height="7171" transform="translate(-112 -1286)" fill="white"/>
<g id="Social proof section">
<rect width="1440" height="296" transform="translate(-112 -154)" fill="white"/>
<g id="Container">
<g id="Logos">
<g id="Company logo">
<g id="Logomark">
<path id="Isometric square" d="M13.2775 20.3183C14.0998 17.25 17.2537 14.0961 20.322 13.2739L39.4509 8.14749C42.5192 7.32522 44.3399 9.14597 43.5177 12.2142L38.3913 31.3432C37.569 34.4115 34.4151 37.5654 31.3469 38.3877L12.2179 43.514C9.14963 44.3363 7.32888 42.5155 8.15115 39.4473L13.2775 20.3183Z" fill="#9E77ED"/>
<path id="Isometric square_2" d="M5.60882 12.6493C6.43108 9.58107 9.58498 6.42717 12.6533 5.60491L31.7822 0.47854C34.8505 -0.343725 36.6713 1.47702 35.849 4.54529L30.7226 23.6743C29.9004 26.7425 26.7465 29.8964 23.6782 30.7187L4.5492 35.8451C1.48093 36.6673 -0.339816 34.8466 0.482448 31.7783L5.60882 12.6493Z" fill="#6941C6"/>
</g>
</g>
</g>
</g>
</g>
</g>
<defs>
<clipPath id="clip0_0_1">
<rect width="1440" height="7171" fill="white" transform="translate(-112 -1286)"/>
</clipPath>
</defs>
</svg>
