<svg width="44" height="44" viewBox="0 0 44 44" fill="none" xmlns="http://www.w3.org/2000/svg">
<path fill-rule="evenodd" clip-rule="evenodd" d="M22 34.4667C28.8851 34.4667 34.4667 28.8851 34.4667 22C34.4667 15.1149 28.8851 9.53333 22 9.53333C15.1148 9.53333 9.53333 15.1149 9.53333 22C9.53333 28.8851 15.1148 34.4667 22 34.4667ZM22 44C34.1503 44 44 34.1503 44 22C44 9.84974 34.1503 0 22 0C9.84973 0 0 9.84974 0 22C0 34.1503 9.84973 44 22 44Z" fill="#6938EF"/>
<path d="M22.2516 22.4816C24.5427 20.1905 28.2573 20.1905 30.5484 22.4816L41.9563 33.8896C44.2474 36.1807 44.2474 39.8952 41.9563 42.1863C39.6653 44.4774 35.9507 44.4774 33.6596 42.1863L22.2516 30.7783C19.9606 28.4873 19.9606 24.7727 22.2516 22.4816Z" fill="#F670C7"/>
<path d="M25.455 33.9818L32.7003 41.2271C36.1755 39.289 39.0708 36.436 41.0604 32.9938L33.8745 25.8079C32.6122 29.7473 29.444 32.8336 25.455 33.9818Z" fill="#6519BA"/>
</svg>
